<svg version="1" xmlns="http://www.w3.org/2000/svg" width="682.667" height="682.667" viewBox="0 0 512.000000 512.000000"><path d="M256 128v128h-32v221h-3.2c-4.8-.1-19.3-3.4-32.6-7.6-14-4.3-28.3-10.6-41.7-18.1-8.6-4.9-25-15.5-26.5-17.2-.3-.3-2.7-2.4-5.5-4.5-2.7-2.2-9.4-8.3-14.9-13.5-26-25.2-46.6-58.5-56.9-92.2-8.1-26.3-10.1-39.8-10.1-67.9 0-28.1 2-41.6 10.1-67.9 4.2-13.8 10.4-28.1 18-41.6 4.9-8.6 15.5-25 17.2-26.5.3-.3 2.4-2.8 4.5-5.5 6.1-7.7 22.3-24 30.1-30.3 3.9-3.1 7.2-5.9 7.5-6.3 3.3-3.7 30.2-19.8 42.5-25.4 19.4-8.9 48.3-17.5 58.6-17.5h2.9V18.5c0-9.5-.4-16.5-.9-16.5-3.3 0-29.3 5.5-37.6 7.9-29.3 8.5-60.8 24.1-82.5 40.8-50.5 38.9-83.7 90.2-96.9 150.1C1.7 220.6.6 231.7.6 256c0 24.3 1.1 35.4 5.5 55.2 13.2 59.9 46.4 111.2 96.9 150.1 15.8 12.2 42.1 26.6 62.5 34.2 26.2 9.8 60.7 16.5 84.8 16.5h5.7V278.5l84.5 84.5 84.5 84.5 11.5-11.5 11.5-11.5-80-80-80-80V35h3.3c4.7.1 19.2 3.4 32.5 7.6 14 4.3 28.3 10.6 41.7 18.1 8.6 4.9 25 15.5 26.5 17.2.3.3 2.8 2.4 5.5 4.5 8.7 6.9 24.5 22.8 31.9 32.1 31.1 39 47.3 80.7 50.2 129.8l.7 11.7h32l-.7-12.8c-4-76.7-40.1-144.4-102.6-192.5-15.8-12.2-42.1-26.6-62.5-34.2C320.3 6.7 285.8 0 261.8 0H256v128z"/></svg>